<mxfile host="app.diagrams.net" agent="Mozilla/5.0 (Macintosh; Intel Mac OS X 10_15_7) AppleWebKit/537.36 (KHTML, like Gecko) Chrome/134.0.0.0 Safari/537.36" version="26.1.0">
  <diagram name="Page-1" id="V_vD3ZpPkpMUZe6Rr-mx">
    <mxGraphModel dx="515" dy="339" grid="1" gridSize="10" guides="1" tooltips="1" connect="1" arrows="1" fold="1" page="1" pageScale="1" pageWidth="850" pageHeight="1100" math="0" shadow="0">
      <root>
        <mxCell id="0" />
        <mxCell id="1" parent="0" />
        <mxCell id="tsfCPLSaw8EtS1SLrKBW-1" value="Administrador" style="shape=umlActor;verticalLabelPosition=bottom;verticalAlign=top;html=1;outlineConnect=0;" vertex="1" parent="1">
          <mxGeometry x="80" y="215" width="30" height="60" as="geometry" />
        </mxCell>
        <mxCell id="tsfCPLSaw8EtS1SLrKBW-2" value="&lt;font style=&quot;font-size: 6px;&quot;&gt;CUD001 Ingresar al sistema&lt;/font&gt;" style="ellipse;whiteSpace=wrap;html=1;" vertex="1" parent="1">
          <mxGeometry x="190" y="90" width="100" height="30" as="geometry" />
        </mxCell>
        <mxCell id="tsfCPLSaw8EtS1SLrKBW-3" value="&lt;span style=&quot;font-size: 6px;&quot;&gt;CUD002 Gestionar ventas&lt;/span&gt;" style="ellipse;whiteSpace=wrap;html=1;" vertex="1" parent="1">
          <mxGeometry x="190" y="140" width="100" height="30" as="geometry" />
        </mxCell>
        <mxCell id="tsfCPLSaw8EtS1SLrKBW-4" value="&lt;span style=&quot;font-size: 6px;&quot;&gt;CUD003 Gestionar empleados&lt;/span&gt;" style="ellipse;whiteSpace=wrap;html=1;" vertex="1" parent="1">
          <mxGeometry x="190" y="230" width="100" height="30" as="geometry" />
        </mxCell>
        <mxCell id="tsfCPLSaw8EtS1SLrKBW-5" value="&lt;span style=&quot;font-size: 6px;&quot;&gt;CUD003 Gestionar horarios&lt;/span&gt;" style="ellipse;whiteSpace=wrap;html=1;" vertex="1" parent="1">
          <mxGeometry x="190" y="320" width="100" height="30" as="geometry" />
        </mxCell>
        <mxCell id="tsfCPLSaw8EtS1SLrKBW-6" value="&lt;span style=&quot;font-size: 6px;&quot;&gt;Consultar ventas&lt;/span&gt;" style="ellipse;whiteSpace=wrap;html=1;" vertex="1" parent="1">
          <mxGeometry x="340" y="120" width="70" height="20" as="geometry" />
        </mxCell>
        <mxCell id="tsfCPLSaw8EtS1SLrKBW-7" value="&lt;span style=&quot;font-size: 6px;&quot;&gt;Realizar venta&lt;/span&gt;" style="ellipse;whiteSpace=wrap;html=1;" vertex="1" parent="1">
          <mxGeometry x="340" y="145" width="75" height="20" as="geometry" />
        </mxCell>
        <mxCell id="tsfCPLSaw8EtS1SLrKBW-8" value="&lt;span style=&quot;font-size: 6px;&quot;&gt;Anular venta&lt;/span&gt;" style="ellipse;whiteSpace=wrap;html=1;" vertex="1" parent="1">
          <mxGeometry x="340" y="170" width="75" height="20" as="geometry" />
        </mxCell>
        <mxCell id="tsfCPLSaw8EtS1SLrKBW-9" value="" style="endArrow=classic;html=1;rounded=0;entryX=0;entryY=0.5;entryDx=0;entryDy=0;exitX=1;exitY=0.5;exitDx=0;exitDy=0;" edge="1" parent="1" source="tsfCPLSaw8EtS1SLrKBW-3" target="tsfCPLSaw8EtS1SLrKBW-8">
          <mxGeometry width="50" height="50" relative="1" as="geometry">
            <mxPoint x="260" y="220" as="sourcePoint" />
            <mxPoint x="310" y="170" as="targetPoint" />
          </mxGeometry>
        </mxCell>
        <mxCell id="tsfCPLSaw8EtS1SLrKBW-10" value="" style="endArrow=classic;html=1;rounded=0;entryX=0;entryY=0.5;entryDx=0;entryDy=0;exitX=1;exitY=0.5;exitDx=0;exitDy=0;" edge="1" parent="1" source="tsfCPLSaw8EtS1SLrKBW-3">
          <mxGeometry width="50" height="50" relative="1" as="geometry">
            <mxPoint x="290" y="130" as="sourcePoint" />
            <mxPoint x="340" y="155" as="targetPoint" />
          </mxGeometry>
        </mxCell>
        <mxCell id="tsfCPLSaw8EtS1SLrKBW-11" value="" style="endArrow=classic;html=1;rounded=0;entryX=0;entryY=0.5;entryDx=0;entryDy=0;exitX=1;exitY=0.5;exitDx=0;exitDy=0;" edge="1" parent="1" target="tsfCPLSaw8EtS1SLrKBW-6">
          <mxGeometry width="50" height="50" relative="1" as="geometry">
            <mxPoint x="290" y="154.8" as="sourcePoint" />
            <mxPoint x="340" y="154.8" as="targetPoint" />
          </mxGeometry>
        </mxCell>
        <mxCell id="tsfCPLSaw8EtS1SLrKBW-12" value="&lt;span style=&quot;font-size: 6px;&quot;&gt;Registrar empleado&lt;/span&gt;" style="ellipse;whiteSpace=wrap;html=1;" vertex="1" parent="1">
          <mxGeometry x="342.5" y="210" width="70" height="20" as="geometry" />
        </mxCell>
        <mxCell id="tsfCPLSaw8EtS1SLrKBW-13" value="&lt;span style=&quot;font-size: 6px;&quot;&gt;Consultar&lt;/span&gt;&lt;span style=&quot;font-size: 6px; background-color: transparent; color: light-dark(rgb(0, 0, 0), rgb(255, 255, 255));&quot;&gt;&amp;nbsp;empleado&lt;/span&gt;" style="ellipse;whiteSpace=wrap;html=1;" vertex="1" parent="1">
          <mxGeometry x="342.5" y="240" width="70" height="20" as="geometry" />
        </mxCell>
        <mxCell id="tsfCPLSaw8EtS1SLrKBW-14" value="&lt;span style=&quot;font-size: 6px;&quot;&gt;Actualizar empleado&lt;/span&gt;" style="ellipse;whiteSpace=wrap;html=1;" vertex="1" parent="1">
          <mxGeometry x="345" y="270" width="70" height="20" as="geometry" />
        </mxCell>
        <mxCell id="tsfCPLSaw8EtS1SLrKBW-15" value="" style="endArrow=classic;html=1;rounded=0;entryX=0.039;entryY=0.619;entryDx=0;entryDy=0;exitX=1;exitY=0.5;exitDx=0;exitDy=0;entryPerimeter=0;" edge="1" parent="1" target="tsfCPLSaw8EtS1SLrKBW-14">
          <mxGeometry width="50" height="50" relative="1" as="geometry">
            <mxPoint x="290" y="245" as="sourcePoint" />
            <mxPoint x="340" y="270" as="targetPoint" />
          </mxGeometry>
        </mxCell>
        <mxCell id="tsfCPLSaw8EtS1SLrKBW-16" value="" style="endArrow=classic;html=1;rounded=0;entryX=0;entryY=0.5;entryDx=0;entryDy=0;exitX=1;exitY=0.5;exitDx=0;exitDy=0;" edge="1" parent="1" target="tsfCPLSaw8EtS1SLrKBW-13">
          <mxGeometry width="50" height="50" relative="1" as="geometry">
            <mxPoint x="290" y="245" as="sourcePoint" />
            <mxPoint x="340" y="245" as="targetPoint" />
          </mxGeometry>
        </mxCell>
        <mxCell id="tsfCPLSaw8EtS1SLrKBW-17" value="" style="endArrow=classic;html=1;rounded=0;entryX=0;entryY=0.5;entryDx=0;entryDy=0;exitX=1;exitY=0.5;exitDx=0;exitDy=0;" edge="1" parent="1" target="tsfCPLSaw8EtS1SLrKBW-12">
          <mxGeometry width="50" height="50" relative="1" as="geometry">
            <mxPoint x="290" y="244.8" as="sourcePoint" />
            <mxPoint x="340" y="220" as="targetPoint" />
          </mxGeometry>
        </mxCell>
        <mxCell id="tsfCPLSaw8EtS1SLrKBW-18" value="&lt;span style=&quot;font-size: 6px;&quot;&gt;Registrar horario&lt;/span&gt;" style="ellipse;whiteSpace=wrap;html=1;" vertex="1" parent="1">
          <mxGeometry x="342.5" y="300" width="70" height="20" as="geometry" />
        </mxCell>
        <mxCell id="tsfCPLSaw8EtS1SLrKBW-19" value="&lt;span style=&quot;font-size: 6px;&quot;&gt;Consultar horario&lt;/span&gt;" style="ellipse;whiteSpace=wrap;html=1;" vertex="1" parent="1">
          <mxGeometry x="342.5" y="330" width="70" height="20" as="geometry" />
        </mxCell>
        <mxCell id="tsfCPLSaw8EtS1SLrKBW-20" value="&lt;span style=&quot;font-size: 6px;&quot;&gt;Modificar horario&lt;/span&gt;" style="ellipse;whiteSpace=wrap;html=1;" vertex="1" parent="1">
          <mxGeometry x="345" y="360" width="70" height="20" as="geometry" />
        </mxCell>
        <mxCell id="tsfCPLSaw8EtS1SLrKBW-21" value="" style="endArrow=classic;html=1;rounded=0;entryX=0.039;entryY=0.619;entryDx=0;entryDy=0;exitX=1;exitY=0.5;exitDx=0;exitDy=0;entryPerimeter=0;" edge="1" parent="1" target="tsfCPLSaw8EtS1SLrKBW-20">
          <mxGeometry width="50" height="50" relative="1" as="geometry">
            <mxPoint x="290" y="335" as="sourcePoint" />
            <mxPoint x="340" y="360" as="targetPoint" />
          </mxGeometry>
        </mxCell>
        <mxCell id="tsfCPLSaw8EtS1SLrKBW-22" value="" style="endArrow=classic;html=1;rounded=0;entryX=0;entryY=0.5;entryDx=0;entryDy=0;exitX=1;exitY=0.5;exitDx=0;exitDy=0;" edge="1" parent="1" target="tsfCPLSaw8EtS1SLrKBW-19">
          <mxGeometry width="50" height="50" relative="1" as="geometry">
            <mxPoint x="290" y="335" as="sourcePoint" />
            <mxPoint x="340" y="335" as="targetPoint" />
          </mxGeometry>
        </mxCell>
        <mxCell id="tsfCPLSaw8EtS1SLrKBW-23" value="" style="endArrow=classic;html=1;rounded=0;entryX=0;entryY=0.5;entryDx=0;entryDy=0;exitX=1;exitY=0.5;exitDx=0;exitDy=0;" edge="1" parent="1" target="tsfCPLSaw8EtS1SLrKBW-18">
          <mxGeometry width="50" height="50" relative="1" as="geometry">
            <mxPoint x="290" y="334.8" as="sourcePoint" />
            <mxPoint x="340" y="310" as="targetPoint" />
          </mxGeometry>
        </mxCell>
        <mxCell id="tsfCPLSaw8EtS1SLrKBW-24" value="" style="endArrow=classic;html=1;rounded=0;entryX=0;entryY=0.5;entryDx=0;entryDy=0;" edge="1" parent="1" target="tsfCPLSaw8EtS1SLrKBW-2">
          <mxGeometry width="50" height="50" relative="1" as="geometry">
            <mxPoint x="120" y="250" as="sourcePoint" />
            <mxPoint x="170" y="190" as="targetPoint" />
          </mxGeometry>
        </mxCell>
        <mxCell id="tsfCPLSaw8EtS1SLrKBW-25" value="" style="endArrow=classic;html=1;rounded=0;entryX=0;entryY=0.5;entryDx=0;entryDy=0;" edge="1" parent="1" target="tsfCPLSaw8EtS1SLrKBW-3">
          <mxGeometry width="50" height="50" relative="1" as="geometry">
            <mxPoint x="120" y="250" as="sourcePoint" />
            <mxPoint x="200" y="115" as="targetPoint" />
          </mxGeometry>
        </mxCell>
        <mxCell id="tsfCPLSaw8EtS1SLrKBW-26" value="" style="endArrow=classic;html=1;rounded=0;entryX=0;entryY=0.5;entryDx=0;entryDy=0;" edge="1" parent="1" target="tsfCPLSaw8EtS1SLrKBW-4">
          <mxGeometry width="50" height="50" relative="1" as="geometry">
            <mxPoint x="120" y="250" as="sourcePoint" />
            <mxPoint x="210" y="125" as="targetPoint" />
          </mxGeometry>
        </mxCell>
        <mxCell id="tsfCPLSaw8EtS1SLrKBW-27" value="" style="endArrow=classic;html=1;rounded=0;entryX=0;entryY=0.5;entryDx=0;entryDy=0;" edge="1" parent="1" target="tsfCPLSaw8EtS1SLrKBW-5">
          <mxGeometry width="50" height="50" relative="1" as="geometry">
            <mxPoint x="120" y="250" as="sourcePoint" />
            <mxPoint x="220" y="135" as="targetPoint" />
          </mxGeometry>
        </mxCell>
        <mxCell id="tsfCPLSaw8EtS1SLrKBW-28" value="Empleado" style="shape=umlActor;verticalLabelPosition=bottom;verticalAlign=top;html=1;outlineConnect=0;" vertex="1" parent="1">
          <mxGeometry x="75" y="565" width="30" height="60" as="geometry" />
        </mxCell>
        <mxCell id="tsfCPLSaw8EtS1SLrKBW-29" value="&lt;font style=&quot;font-size: 6px;&quot;&gt;CUD001 Ingresar al sistema&lt;/font&gt;" style="ellipse;whiteSpace=wrap;html=1;" vertex="1" parent="1">
          <mxGeometry x="185" y="440" width="100" height="30" as="geometry" />
        </mxCell>
        <mxCell id="tsfCPLSaw8EtS1SLrKBW-30" value="&lt;span style=&quot;font-size: 6px;&quot;&gt;CUD002 Gestionar ventas&lt;/span&gt;" style="ellipse;whiteSpace=wrap;html=1;" vertex="1" parent="1">
          <mxGeometry x="200" y="523" width="100" height="30" as="geometry" />
        </mxCell>
        <mxCell id="tsfCPLSaw8EtS1SLrKBW-32" value="&lt;span style=&quot;font-size: 6px;&quot;&gt;CUD003 Gestionar horarios&lt;/span&gt;" style="ellipse;whiteSpace=wrap;html=1;" vertex="1" parent="1">
          <mxGeometry x="185" y="585" width="100" height="30" as="geometry" />
        </mxCell>
        <mxCell id="tsfCPLSaw8EtS1SLrKBW-34" value="&lt;span style=&quot;font-size: 6px;&quot;&gt;Registrar venta&lt;/span&gt;" style="ellipse;whiteSpace=wrap;html=1;" vertex="1" parent="1">
          <mxGeometry x="350" y="528" width="75" height="20" as="geometry" />
        </mxCell>
        <mxCell id="tsfCPLSaw8EtS1SLrKBW-35" value="&lt;span style=&quot;font-size: 6px;&quot;&gt;Consultar venta&lt;/span&gt;" style="ellipse;whiteSpace=wrap;html=1;" vertex="1" parent="1">
          <mxGeometry x="350" y="553" width="75" height="20" as="geometry" />
        </mxCell>
        <mxCell id="tsfCPLSaw8EtS1SLrKBW-36" value="" style="endArrow=classic;html=1;rounded=0;entryX=0;entryY=0.5;entryDx=0;entryDy=0;exitX=1;exitY=0.5;exitDx=0;exitDy=0;" edge="1" parent="1" target="tsfCPLSaw8EtS1SLrKBW-35">
          <mxGeometry width="50" height="50" relative="1" as="geometry">
            <mxPoint x="300" y="538" as="sourcePoint" />
            <mxPoint x="320" y="553" as="targetPoint" />
          </mxGeometry>
        </mxCell>
        <mxCell id="tsfCPLSaw8EtS1SLrKBW-37" value="" style="endArrow=classic;html=1;rounded=0;entryX=0;entryY=0.5;entryDx=0;entryDy=0;exitX=1;exitY=0.5;exitDx=0;exitDy=0;" edge="1" parent="1">
          <mxGeometry width="50" height="50" relative="1" as="geometry">
            <mxPoint x="300" y="538" as="sourcePoint" />
            <mxPoint x="350" y="538" as="targetPoint" />
          </mxGeometry>
        </mxCell>
        <mxCell id="tsfCPLSaw8EtS1SLrKBW-46" value="&lt;span style=&quot;font-size: 6px;&quot;&gt;Consultar horario&lt;/span&gt;" style="ellipse;whiteSpace=wrap;html=1;" vertex="1" parent="1">
          <mxGeometry x="337.5" y="595" width="70" height="20" as="geometry" />
        </mxCell>
        <mxCell id="tsfCPLSaw8EtS1SLrKBW-49" value="" style="endArrow=classic;html=1;rounded=0;entryX=0;entryY=0.5;entryDx=0;entryDy=0;exitX=1;exitY=0.5;exitDx=0;exitDy=0;" edge="1" parent="1" target="tsfCPLSaw8EtS1SLrKBW-46">
          <mxGeometry width="50" height="50" relative="1" as="geometry">
            <mxPoint x="285" y="600" as="sourcePoint" />
            <mxPoint x="335" y="600" as="targetPoint" />
          </mxGeometry>
        </mxCell>
        <mxCell id="tsfCPLSaw8EtS1SLrKBW-51" value="" style="endArrow=classic;html=1;rounded=0;entryX=0;entryY=0.5;entryDx=0;entryDy=0;" edge="1" parent="1" target="tsfCPLSaw8EtS1SLrKBW-29">
          <mxGeometry width="50" height="50" relative="1" as="geometry">
            <mxPoint x="115" y="600" as="sourcePoint" />
            <mxPoint x="165" y="540" as="targetPoint" />
          </mxGeometry>
        </mxCell>
        <mxCell id="tsfCPLSaw8EtS1SLrKBW-52" value="" style="endArrow=classic;html=1;rounded=0;entryX=0;entryY=0.5;entryDx=0;entryDy=0;" edge="1" parent="1" target="tsfCPLSaw8EtS1SLrKBW-30">
          <mxGeometry width="50" height="50" relative="1" as="geometry">
            <mxPoint x="115" y="600" as="sourcePoint" />
            <mxPoint x="195" y="465" as="targetPoint" />
          </mxGeometry>
        </mxCell>
        <mxCell id="tsfCPLSaw8EtS1SLrKBW-54" value="" style="endArrow=classic;html=1;rounded=0;entryX=0;entryY=0.5;entryDx=0;entryDy=0;" edge="1" parent="1" target="tsfCPLSaw8EtS1SLrKBW-32">
          <mxGeometry width="50" height="50" relative="1" as="geometry">
            <mxPoint x="115" y="600" as="sourcePoint" />
            <mxPoint x="215" y="485" as="targetPoint" />
          </mxGeometry>
        </mxCell>
        <mxCell id="tsfCPLSaw8EtS1SLrKBW-55" value="&lt;font style=&quot;font-size: 5px;&quot;&gt;Verificar disponibilidad stock&lt;/font&gt;" style="ellipse;whiteSpace=wrap;html=1;" vertex="1" parent="1">
          <mxGeometry x="460" y="528" width="75" height="20" as="geometry" />
        </mxCell>
        <mxCell id="tsfCPLSaw8EtS1SLrKBW-57" value="" style="endArrow=classic;html=1;rounded=0;entryX=0;entryY=0.5;entryDx=0;entryDy=0;exitX=1;exitY=0.5;exitDx=0;exitDy=0;" edge="1" parent="1" target="tsfCPLSaw8EtS1SLrKBW-55">
          <mxGeometry width="50" height="50" relative="1" as="geometry">
            <mxPoint x="425" y="537.8" as="sourcePoint" />
            <mxPoint x="455.0000000000001" y="533" as="targetPoint" />
          </mxGeometry>
        </mxCell>
      </root>
    </mxGraphModel>
  </diagram>
</mxfile>
